<?xml version="1.0" encoding="utf-8"?>
<!-- Generator: Adobe Illustrator 23.0.4, SVG Export Plug-In . SVG Version: 6.00 Build 0)  -->
<svg version="1.1" xmlns="http://www.w3.org/2000/svg" xmlns:xlink="http://www.w3.org/1999/xlink" x="0px" y="0px"
	 viewBox="0 0 466.5 526.9" style="enable-background:new 0 0 466.5 526.9;" xml:space="preserve">
<style type="text/css">
	.st0{fill:#E2F68B;stroke:#FFFFFF;stroke-width:0.5;}
	.st1{fill:#FF67BB;}
	.st2{font-family:'Helvetica-Bold';}
	.st3{font-size:16px;}
	.st4{fill:none;}
</style>
<g id="map">
	<g>
		<path id="JP-23" class="st0" d="M268.8,285l0.3-2.1l-0.9-1.4l0.6-2.8l-2.3-0.3l0,0l-1.3-2.8l0,0l0.2-2.2l1.7-3l2.9-0.4l1.5-1.1
			l1.8,3.1l2.1,1l2.4-0.9l2.5,1.6l2.5-1.5l0,0l0.3,2.1l2.1-0.8l2.6,0.4l0,0l0.2,1.5l-3.7,6.3l-2.8,1.5l-0.3,3.5l0,0l-8.9,2.3
			l0.5-1.9l0.7,0.6l2.4-1l1.9-1.4l0.2-1.1l-2.3-1l-0.8,1.4l-3-0.3l-1.4-1.4l-0.1-1.3l-0.7,2.8l1.2,1.8L268.8,285z"/>
		<path id="JP-05" class="st0" d="M332,162.5l-0.7-2.8l-1.4-1.6l0.5-0.8l1.3,1.1l0.2-5h-1.5l-1.1,2.9l0.5,1.7l-1.6-0.1l0,1.1
			l-2.1-0.1l-1.2-3.1l0.1-0.7l2.6,1.1l2.3-3l1.4-7.1l-1.7-1.8l0,0l1.6,0.2l1-1.2l0.8,0.8l4.5-0.1l0.5-1l1.3-0.1l2.2,2l1-0.8l1.2,0.8
			l3-1.2l0.2-1.1l1.2-0.5l-0.2,2.4l2.1-0.2l-0.5,4.6l0,0l-1.8,1.9l0.3,7.7l-1.9,0.2l0.1,1.1l1.1,0.7l-1.2,1.6l0.8,2.2l-1.8,2.1
			l-1.4,3.8l0.8,2.9l2.2,3l-1.1,1.1l0,1.2l1.1,0.8l-0.7,2.5l0,0l-2.4,1.7l-2,0.2l0,0l-1.8-1l-0.6-1.8l-5.6-1.5l-1.5-0.9l-0.2-1.2
			l-1.4,0.7l-2.5-0.4l0,0l0.8-3.7l2-3.1L332,162.5z"/>
		<path id="JP-02" class="st0" d="M353.1,132.8l1.5-1.9l1.4-5.4l-1.6-3.1l-0.8-0.1l-2,2.4l-1.5-0.4l-3.3,1.9l-0.9-0.5l0.7-4.6
			l2.2-5.9l7,5l1.9-0.3l2-1.7l-1.5,6.8l0.5,10.6l1.4,4.9l1.2,1.1l0.7-0.4l2.1,2.4l0,0l-2.9,2.7l-1.2-0.8l-2.4,1.2l-0.7-1.1l-5.7,3.9
			l-1.4-0.7l0,0l0.5-4.6l-2.1,0.2l0.2-2.4l-1.2,0.5l-0.2,1.1l-3,1.2l-1.2-0.8l-1,0.8l-2.2-2L338,143l-0.5,1l-4.5,0.1l-0.8-0.8
			l-1,1.2l-1.6-0.2l0,0l0.1-3.2l-1.6-1.6l3.5-3.6l1.8,0.4l2.7-1.8l1.1-7.4l-1.4-0.8l1.4-0.6l0.4-2.9l2.4,2l1.7-1.2l1.8,1.1l0.3,4.8
			l1.6,4.5l1.3-0.1l1.2-1.3l0.3-3.2L353.1,132.8z"/>
		<path id="JP-12" class="st0" d="M327.7,270.2l1.1,0.2l0.2-1.8l1.8-0.6l1.5-2.2l0.8,0.1l-2.5-3.3l-0.7,0.3l0,0l-1.4-3l0,0l0.6-1.6
			l-2.4-5.7l0,0l3.3,3.8l4.1,2.3l6.1-1.8l4.4,1.7l3.6,3.1l0,0l-0.1,0.6l-3.8-0.1l-2.7,2.1l-2.5,3.7l-0.4,6.4l-1.4,1.3l-3.7,0.4
			l-4.7,5.3l-2.7-1.6l2.1-0.7l-0.8-1.7l0-3l1-1.2l-1.1-1.6L327.7,270.2z"/>
		<path id="JP-38" class="st0" d="M182.6,319.9l0.2-0.4l0.4-0.3l0.4,0l0-0.2l-0.3-0.1l-0.4-0.2l-0.5,0.2l-0.3,0.2l-0.4-0.2l-0.2,0.4
			l-0.4-0.1l-0.1-0.2h-0.5l0.1-0.5l0.2-0.1l0.1-0.1l0.3-0.1l0-0.2l0-0.2l-0.3,0l-0.2-0.4l0.4-0.3l-0.1-0.4l-0.3-0.1l0.4-0.3l0.2,0
			l0.2-0.3l0.1-0.5l-0.2,0.1l-0.4,0l0.2-0.4l-0.5,0.1l-0.3-0.4l-0.2,0.1l-0.4,0.3l-0.9,0.6l-0.5,0.1l-0.3,0.4l-1.1,0.3l-0.6,0.5
			l-0.2,0.3l-0.3,0.3l-0.5,0.1l0-0.2l0.4-0.2l0-0.2l-0.5,0l-0.9,0.7l-0.5,0.3l-0.2,0l2.1-1.8l0.5-0.3l0.7-0.4l0.6,0.1l0.3-0.3
			l0.3-0.1l0.5,0l0.2-0.1l0.1-0.2l1.2-0.5l0.9-0.6l0.8-0.4l0.2-0.5l0.8-1l0.6-0.5l1.6-0.6l1.2-0.9l0.2-0.2l0.4-1l0.4-0.4l-0.2-0.7
			l0-1l0.2-1l0.2-0.7l0.4,0.2l0.4-0.3l0.3-1.2l0.1-0.6l1.8-1.7l1.1-0.2l-0.1-0.5l0.3-0.2l-0.1-0.6l0.4-0.6l0.8,0.9l1,1.4l0.7,1.5
			l0.4,0.6l0.1,0.4l0.5,0.4l0.9-0.3l1.4-0.3l0.4-0.1l-0.1-0.5l1.2-0.2l0.2-0.3l0.4,0l0.4,0.3l0.7-0.3l0.7,0.1l0.5,0.1l0.7,0.3
			l0.5-0.1l0.7-0.5l0.2-0.3l0.1-0.4l0.2-0.1l0.4-0.3l0,0l0.3,0.3l0.9,0.1l0.6,0.3l0,0l-0.3,0.7l0.3,0.5v1l-0.2,0.6l-0.3,0.3l0,0
			l-0.4,0l-0.6,0l-0.5,0.3l-0.5-0.3l-0.2,0l-0.6,0.8l-0.2,0.3l-0.2,0.2l-2.1,0.1l-0.8-0.1l-1.5,0l-0.2,0.2l-0.2,0.7l-0.2,0.1
			l-0.5,0.2l-0.3-0.3l-0.2,0l-0.3,0.7l-0.4,0.8l-0.4,0.4l-0.4,0.5l-0.1,0.5l-0.2,0.3l-0.6,0.1l-0.2,0.6l-0.2,0.7l-0.2,0.5l0.3,0.3
			l0,0.5l-0.4,0.3l-0.6,0.9l0,0.3l-1.2,0.3l-0.2-0.1l-0.7,0.1l-1.3-0.2l-0.4,0.1l-0.3,0.3l0.4,0.3l0.1,0.9l0.1,0.2h0.2l0.2,0.7
			l0.4,0.1l0.3,0.4l0,0.6l-0.1,0.2l-0.8,0.5l-1.2,0.4l-0.3,0.5l-0.2,1.1l-0.4,0l-0.2,0.1l-0.1,0.5l-0.7,0.9l-0.2,0.1l-0.9-0.9
			l-0.1-0.3l-0.2,0.1l-0.1,0.3l0.3,0.6l0,0.3l0.5,0.5l0.2,0l0.1,0.3l-0.2,0.9l0.3,0.3l0.2,0.9l0,1.3l-0.4,0.1l-0.1,0.4l0,0l-0.3-0.1
			l-0.9,0.4l-0.1-0.3l-0.2-0.3l-0.1-0.2l-0.5,0.2l-0.2,0.1l-0.3,0.1l0,0.3l0,0.1l-0.2,0.3l-0.4,0l-0.3,0l-0.2,0l0.1-0.4l-0.3-0.4
			l0.1-0.1l0.4,0l0.4-0.3l-0.6-0.3l0.3-0.2l0.2,0.1l0.1,0l0.1-0.1l-0.2-0.4l0.1-0.3l-0.3-0.1l-0.1,0l0-0.8l-0.3,0l-0.4,0.3l-0.4-0.2
			l-0.4,0.2l-0.1,0.1l-0.1,0.2l-0.1,0.3l-0.4-0.2l0.3-0.4l0-0.4l0.1-0.4l0.2,0l0.2,0.1l0.1,0.3l0.3-0.1l0.6-0.2l0.1-0.3l-0.3-0.1
			l0.2-0.4l0.4-0.6l0-0.3l-0.4-0.1l-0.1,0l-0.2,0.1l-0.1,0.1l-0.2-0.1l0.1-0.2l-0.4-0.2l0.1-0.3l0.3-0.4l-0.5-0.6l0.5,0.2l0.7,0.3
			l0.3,0.3l0.4,0l-0.1-0.4l-0.2-0.4l0.3-0.3l0.6,0l0.2,0l0.1-0.2l-0.1-0.3l-0.3,0l-0.4-0.3l0.4-0.2l0-0.3l-0.8,0L182.6,319.9z"/>
		<path id="JP-18" class="st0" d="M246.8,265.3l1.5,1.1l-0.2-1.1l1.1-0.4l-0.8-1.3l1,0.8l2.1-0.4l-0.4-2.4l1.2-1l0.2,2l1,0.4
			l0.5-2.8l-2.8-4.9l3.3-6.5l2.4-1.1l0,0l2.4,3.2l2,0.7l1.8-0.4l2.1,2.1l1.9-0.5l0,0l-0.5,2.2l2.1,3.4l-0.8,1.2l-2.9,0l-2.8,1.3
			l-2.5-0.9l-1.9,3.1l0,0l-2.5-0.8l0.4,3.2l-1.1-0.3l-2.1,2.1l-1.2-0.7l-1,2.8l-1.6-0.1l-0.9,1.3l0,0l-4.6-0.5l-1.4-2.1l0.2-2.3l0,0
			l0.9,0.2l0,1.3l2.6,0.4l1.8-0.4l0.3-0.9l-1.2-0.3L246.8,265.3z"/>
		<path id="JP-40" class="st0" d="M141.7,310.2l1.2-1.4l-0.4-1.6l1.6-1.8l2.1,0.2l1.4-1.3l3.8,1.1l2.2-1.8l-0.1,2.6l-0.8,0.7
			l0.9,0.3l1.9,4.6l1.6,0.5l0,0l-0.1,2.1l-3.8,0.1l-1.6,1.4l-1.3,2.5l0.6,1.1l-0.8,1.3l1.2,1.5l-0.8,1.6l0,0l-3.2-1.5l-0.5,1.4
			l-1.5-0.2l-1.6,1.5l0.2,1.1l-2.1-0.1l0,0l0.5-1.1l-1.4-2.2l0,0l0.8-2.3l2.9-2.2l0-2.2l-2.1,1l-3.1-2l-4.7,0.2l0,0l2.3-1.6l0.2-0.5
			l-1.5-0.5l2.4-2l1.4,2l2.3-0.8l0.7-1.1L141.7,310.2z"/>
		<path id="JP-07" class="st0" d="M349.9,230.9l-3.1,2l-0.4,1.1l0,0l-3.4-1l-0.6-1l0.1,1.8l-2.6,1.9l-4-3.4l0,0l-0.2-2.2L335,230
			l-1.2-1.9l-4.8-1.3l-10.2,5.9l0,0l-2.8-0.9l0,0l0.3-5.2l-1.7-1.9l1.2-2.6l-0.5-1.8l0.6-0.9l3.4-0.3l0.7-1.4l3,0l-0.7-3.4l3.7-4.3
			l0,0l1.4,0.5l2.5-0.6l1,1.7l1.2-0.5l1.5,1.1l2-0.3l1.3-1.6l-0.3-4.1l0,0l1.4,0.7l1.1-0.6l1.5,1.8l3.5,0l0.6,2.4l1.8,0.8l-0.3-0.6
			l1.7-0.1l0-2.2l1.4-0.1l0,0l1.6,3.7l0.5,6L349.9,230.9z M346.5,234L346.5,234L346.5,234L346.5,234z"/>
		<path id="JP-21" class="st0" d="M260.3,273.9l-0.7-0.7l1.2-3.4l-0.8-3.4l-1.6-0.5l0.1-1.6l-0.9-1.1l0,0l1.9-3.1l2.5,0.9l2.8-1.3
			l2.9,0.1l0.8-1.2l-2-3.4l0.5-2.2l0,0l0.3-1.8l1.6-1.9l-1.1-1.4l0,0l1.6-1.7l1.5,0.7l0.4,1.6l3.7-4.4l2.8-0.2l0.2,0.9l1.4-0.8
			l0.3,0.8l3.6,0.9l0,0l1.2,1.7l-1.9,4.4l1.2,1.6l-0.4,1.6l-2.3,2.8l-1.9,0.1l-1.1,1.9l2.6,1.3l1.6,2.5l0.2,3.4l1.6,0.2l-0.6,1.6
			l0.7,1l-0.9,0.3l0.3,1.3l-0.8,1.2l0,0l-2.5,1.5l-2.5-1.6l-2.4,0.9l-2.1-1l-1.8-3.1l-1.5,1.1l-2.9,0.4l-1.7,3l-0.2,2.2l0,0
			l-1.1-0.1l-1.7-2.5L260.3,273.9z"/>
		<path id="JP-10" class="st0" d="M324.2,249.6l-0.8,0.8h-3.1l-1.8-1.3l-4.8-0.8l-1.7,3.7l-1.5,0.1l-4.9,3.2l0,0l-1.3-0.6l0-2.1
			l-1.4-1.5l1.1-0.3l-0.6-2.4l1-0.7l-0.2-2.6l-3.5,0.2l-1.2-0.7l-0.1-1.3l0.6-2.7l1.9-1.3l0-1.1l3.3-1.2l0,0l1.8,0l0.7-1.7l2.1-0.6
			l0-1.4l0.9-0.2l-0.3-1.9l1.6-0.3l0.9-1.7l2.8,2.7l0,0l2.8,0.9l0,0l-0.6,1.5l1,0.4l-1,1.4l-0.5,3.4l3,1.4l-2.3,5.1l2.1,2.3l2.8,0
			L324.2,249.6z"/>
		<path id="JP-28" class="st0" d="M221.7,284.7l-1.1,0.9l-1.2-0.2l0,0l-1.8-2.8l0.7-1.3l-0.7-0.9l0.3-1.8l1.8-2.8l0.9-0.2l-0.1-2.2
			l0,0l2.2-0.9l-0.1-1.6l-2.8-6.6l0,0l3.4-1.4l1.6,0.8l0.8-0.7l4.1,0.2l0,0l0,2l1.1,1.4l2.4,0.1v2.6l-0.9,0.5l-1.1-0.5l-0.4,2.3
			l2.8,1.7l1.8-0.4l0.6,2.1l1.8-0.1l0.3,0.8l1.8,0.3l-0.3,2l0,0l-0.7,0.3l0.2,1.6l2.4,1l-0.9,0.5l0.8,5l-0.5,1.2l0,0l-0.6-1.3
			l-2.3-0.4l-2.1,1.6l-2.6,0.6l-4.3-1.7l-1.7-1.6L221.7,284.7z M231.1,295.7l0.2,0.8l-4.4,1.9l-1.5-2.4l6.9-7.6l0.4,0.8l-2.5,3.8
			L231.1,295.7z"/>
		<path id="JP-01" class="st0" d="M338.5,78.7l2.8-2.7l-4-5.3l0.4-3l1.6,0.1l1.3-1.2l5.8,4.8l4.4-1.2l-0.1,1.2l3,1.4l2.2-1.2l3-3.8
			L357.1,57l1-2.1l4.3-2.3l0.9-1.9l0.1-9.8l2.1-3.8l0.7-5.3l-1.1-7.1l-3.3-9.5l1.6-3.2l-0.3-2.7l1.3,1.4l1.8-0.3l2.8-3.2l11.7,13.8
			l3.9,7.2l5,5.7l8.7,7.2l3.7,1.9l9.1,3l3.2,0.2l0.2,2l1.5,2l3.2,1l6-0.1l7.8-7.2l3-4l0.5,2.2l-4.5,7.9l-1.6,5l6.1,12.8l-2.5-1.3
			l0,1.6l0.9-0.7l0.5,1.3l3,0.3l3.8-3.5l3.3,0.2l-1.4,1.4l-3.6,1.3l-0.8,2.9l-2-0.4l-5.5,1.2l-3.4,4.4L427,77l-1.1-2l-1.9,1.8
			l1.1,1.5l-6.7-0.5l-2.3-1.4L413,77l-5.8,3.7l-5.3,5.3l-4.1,5.8l-1.5,3.3l0.3,3.1l-1.7,7l-3.7-3.7L378.2,95l-4.2-3.7l-3.2-0.9
			l-4-3.2l-4.2-0.6l-3.2,1L353,92l-2.5,3.2l-1.4-0.9l1,0.3l0.1-0.8l-1.4-0.4l-0.9-2.4l-3.2-3.3l-4.7-0.1l-3.1,4.6l-0.4,4.5l5.1,3.6
			l4.2-0.1l3.9,5.3l4.5,2.8l-4.3,2.6l-3.6-1.7l-1.6,0.9l0.3-1.7l-1.5-0.3l-0.8,2l-3.1,1.5l-0.3,3.9l-3.3,1.4l-1.3,2.2l-3.1-1.3
			l-1.2-3.6l1.8-5.9l1-0.5l-0.1-4.7l-1.9-2.9l-2-0.5l-1.4-2.2l-1.1-0.4l-0.6-2.1l1.6-3.1l-0.5-4.9l0.9-1.4l3.4-0.7l2-1.6l0.9-1.9
			l1.4,1.5l0.9-0.2L338.5,78.7z M353.3,17.2l-0.1-1.2l1.3-1.2l2.1,1.2l0.5,1.8l-1.8,1.5L353.3,17.2z M321.4,98.4l-0.3,2.2l-1.1,1.2
			l-1-3.3l3.1-2L321.4,98.4z M351.7,11.6l-0.6,2.7L349.9,9l0.6,0.9l1-0.5L351.7,11.6z"/>
		<path id="JP-34" class="st0" d="M185.7,298l-0.8-0.7l-1.4,1.8l1.2,1.2l-2.5,0.5l1.4-3.7l-0.6-2.7l-1.3-0.6l-2.3,1l-1.7,2.6l0,0
			l-1.6-0.1l-1.7-5.7l0,0L174,291l1.5-1.5l0.9-2.8l-0.6-0.3l2.1-2.5l1.2,0.6l2.8-1l1.9,0.5l3.2-1.2l-1.1-1.5l2-1.3l2.4-3.3l5.3,0.6
			l0,0l2.5,0.5l0,0l1,1.2l-0.5,2.8l1.6,2l0.1,4.4l1.3,3.4l0,0l-1.7,2.5l-2.4-0.5l0.5-0.4l-0.6-0.8l-3,1.3l-0.2,1l-3.7,0.4l-0.9,0.8
			l-1-0.5l-0.8,1.7L185.7,298z"/>
		<path id="JP-08" class="st0" d="M342,247.4l0.8,5.4l5.2,8.9l0,0l-3.6-3.1l-4.4-1.7l-6.1,1.8l-4.1-2.3l-3.3-3.8l0,0l-0.8,0.2
			L325,250l0,0l2.4-0.9l0.5-1.7l1.1,0.3l1.2-1.8l4.4-0.8l1.1-3l-0.6-3.8l1.3-0.9l-0.6-5.3l0,0l4,3.4l2.6-1.9l-0.1-1.8l0.6,1l3.4,1
			l0,0l0,0l0,0l0,0l0,0l-3.6,9.2l0.2,2.9L342,247.4z"/>
		<path id="JP-17" class="st0" d="M266.3,228.3l-0.1-1.3l-1-0.1l1.4-4.7l8-3.9l3.6-0.8l0.6,1.9l-2.1,0.6l0.3,2.2l-0.7,1l-2.7,0.4
			l-1.7,2.3l-1.2-1.2l-1.5,2.2l0.5,0.2l-0.8,1.6l1.1-0.5l1.1,1.1l1.5-1.3l0,3.5l0,0l-2,0.2l-1.4,1.4l-1.9,6.8l0.6,1.7l-0.5,6.1l0,0
			l1,1.4l-1.5,1.9l-0.3,1.8l0,0l-1.9,0.5l-2.1-2.1l-1.8,0.4l-2-0.7l-2.4-3.2l0,0l3.4-3.1l5.6-8l1.3-3.8L266.3,228.3z"/>
		<path id="JP-03" class="st0" d="M368.4,173.3l0.5,0.6l-0.8,0l1.4,1.2l-1.8,0.4l1.1,0.7L367,177l1.7,1l-2.1-0.2l0.2,1l1,0.3
			l-1.2,0.2l0.5,0.9l-1.6,0.2l-0.7-1.2l0.5,1.9l-0.8,1.3l-0.7-1.7l-0.9,0.1l0.2,0.8l0,0l-2.6-0.6l-1.2,5.4l-2.5-1l-1.6,1.8l-1.8-1
			l-0.1-2.1l-2.9,0.1l-3.2-2.2l-1,0.1l0,0l0.7-2.5l-1.1-0.8l0-1.2l1.1-1.1l-2.2-3l-0.8-2.9l1.4-3.8l1.8-2.1l-0.8-2.2l1.2-1.6
			l-1.1-0.7l-0.1-1.1l1.9-0.2l-0.3-7.7l1.8-1.9l0,0l1.4,0.7l5.7-3.9l0.7,1.1l2.4-1.2l1.2,0.8l2.9-2.7l0,0l2.9,5.5l-1,1.1l1.9,1.2
			l-0.9,1.8l2.4,2.4l0.6,7.6l-0.9,2.6l1.6-1.8l0,2l0.9,0.8l-2.3,1.9l0.4,0.9l1.7-0.8l-0.4,1.3l-2.8,2.1l1.6,0.5L368.4,173.3z"/>
		<path id="JP-39" class="st0" d="M195,324.8l-0.2,1l-1.6,0.1l-0.1,3.2l-1.1,0.5l1.3,3.2l-2.8-1.6l-1.6,1l-1.8-1.2l-1.6,0.9l1.7-3.5
			l-1.1-0.3l0.2-4l-1-1.7l1.6,0.8l1.9-3.2l2.1-1.1l-1.8-3.3l4.1-0.5l1.2-4.1l2.3-3.3l9.2-2.1l0,0l1.7,1.1l1.8-0.2l1.4,1.2l1-1
			l1.4,0.2l0.6,3.3l2,0l0.6,3l2.1,0.2l0,0l-1.9,3.6l-0.6,3.6l-4.8-5.7l-3.7-1.1l-3.1,0.5l-2.6,2.3l-2.2,0.4l-0.6,1.1l-1.2-0.3
			l-0.7,5l-0.8-0.2L195,324.8z"/>
		<path id="JP-37" class="st0" d="M208.2,295.9l2.1-1.2l0.2-1l3.7,0.8l1.1-1.2l0.5,1.7l2.1-0.2l-0.2,1.2l3.7,1.9l0,0l-0.6,1.2
			l-4.7-0.4l-3.4,2.4l-1.3-1l-1.4,0.2l-3.4,2.2l0,0l-1.9-0.7l1-3.6l-1.4-1.5l1.9,0.7L208.2,295.9z"/>
		<path id="JP-43" class="st0" d="M148.2,347.3l-2.5-2l-2.9,1.7l-1.9-1l0,0l4.1-6.5l-0.6-1.4l0.8-0.2l-0.9-0.5l2.4-2.4l-3.9,0.4
			l2.7-2.2l0.2-1.9l-3.2-2.8l-0.9-2.2l0,0l2.1,0.1l-0.2-1.1l1.6-1.5l1.5,0.2l0.5-1.4l3.2,1.5l0,0l2.9,1.9l0.7-1.5l-0.7-2l2.4-0.3
			l2.1,3l0.8,3.9l1.4,1.3l0,0l-1.3,0.2l-3,5.4l-1.9,1l0,2.5l1.8,2.6l-1.4,1.6l1.3,2.3l-2-0.2l-1.1,1.3L148.2,347.3z M142.1,337.5
			l-0.6,2.9l-3.5-0.6l-0.3,2.2l-3.6,4.1l-0.4-2l-0.7-0.2l1.6-6.3l2.8-0.8l0.4,2.2l2.2-1.5L142.1,337.5z M137,344.7l0.5-1.3l0.4,2.6
			l-0.9,1.5l-1.3-1.9l0.1-0.9L137,344.7z M142.6,336.7l-0.9,0.1l-0.2-0.9l1-0.9L142.6,336.7z"/>
		<path id="JP-14" class="st0" d="M309.6,269.4l0.4-1.1l3.5-2.1l0.4-3.3l0,0l2.3,1.6l3,0.5l1.4,1.9l0.5-2l-0.8-0.6l1.5-0.7l2.7,1.3
			l0.8,1.3l0,0l1.1,0.5l-2.6,1.1l1.2,0.6l-1.3,1.1l0.4,2.3l2,1l-1.8,1.7l0.4,1.1l-1.3,0l-0.8-3.7l-2.5-0.6l-4.6,1l-1.2,0.9l-0.8,2.4
			l0,0l-1.5-0.2l-0.8-1.2l0.3-4.6L309.6,269.4z"/>
		<path id="JP-46" class="st0" d="M139,362.9l1.4-4.2l-3.3-4.3l1.1-2.7l-0.9-2.5l0.6-1.1l-0.7-0.6l1.1-1l2.3,0.4l0.4-1l0,0l1.9,1
			l2.9-1.7l2.5,2l0,0l-0.5,1l3.7,3.6l-0.1,2.2l2,0.6l1.3,3.4l0.5-0.6l2.1,0.8l0.2,2.4l-0.7,1.4l0,0l-1.2-0.4l-1.7,1.9l-0.1,0.8
			l1.8,0.6l-0.6,1.1l1.1,0.1l-2.3,1.2l-1,2l-5.9,3.3l-0.1-1.8l1.8-1.4l1.2-4.7l-2.1-2.9l0.1-1.9l-2.2-0.8l1.7-1.1l0.6,1.5l1.1,0.1
			l1.1-2.1l-0.5-1.1l-2.7-0.8l-0.8,0.7l-1.9,4.5l0.9,4.4l2,1.2l-1.6,2.5l-1.4-0.2l-1.1-2l-4.8,0.1l-0.8-1.7l0.7-0.5l-1.5-1.5
			l0.5-0.7l1.3,1L139,362.9z M143.6,384.9l3.4,2l-0.4,1.8l-2.6,1.6l-1.7-0.3l-1.2-3L143.6,384.9z M152.5,382.2l-0.2-2.1l2.3-3.9
			l0.4,3.3l-2.3,4.9l0.4,1.9l-2.1,1.2l-0.5-2.8L152.5,382.2z M128.3,357.9l-0.8,0.5l-0.5-0.9l2.5-3L128.3,357.9z M130.5,353.4l0-1
			l1.9,0.8l-0.9,0.9L130.5,353.4z M138.3,384.7l0.7,0.8l-1.1,0.3l-1.3-1.5L138.3,384.7z"/>
		<path id="JP-26" class="st0" d="M239.7,278l0.2-2l-1.8-0.3l-0.3-0.8L236,275l-0.6-2.1l-1.8,0.4l-2.8-1.8l0.3-2.3l1.1,0.6l0.9-0.5
			l0-2.6l-2.4-0.1l-1.1-1.4l0-2l0,0l1.2,0.3l5.7-3l1.7,1.9l-2.3,3.7l0.9-1l0.6,0.3l-0.5,0.7l1.6,0.3l0.1,1.4l1.3-0.3l-1.2-1.3
			l0.8-0.7l1.4-0.7l0.4,0.8l0,0l-0.2,2.3l1.4,2.1l4.6,0.5l0,0l1.6,1.8l-0.6,5.5l0.9,3.8l1.4,0.1l1.6,2.3l0,0l0.5,1.2l0,0L252,286
			l-1.4-1l-1.5,1.2l-1.9-0.5l-0.5-1.2l0,0l0.3-0.6l-2.6-4l-0.8,0l0.1,1.1l-0.8,0.3l-1-1.8l-2.2-0.6L239.7,278z"/>
		<path id="JP-24" class="st0" d="M265.8,296l0.5-1.1l-0.6-0.3l-1.8,2.1l-0.6-0.7l-0.5,0.9l-0.8-0.7l0,1.2l-4,1.1l-0.1,2.2l-1-0.4
			L256,301l1.6,1.3l-0.2,1.2l-3.4,2l-1.8,3.9l0,0l-1.3-0.3l-1.7-1.9l0.1-1.9l0,0l3.1-3.2l1.6,0.2l-0.1-4l0.7-1.4l-0.7-1.1l0.7-0.4
			l-1.2-1.9l0.5-1l2.2-0.3l0.4-0.9l-1.4-1.7L253,289l0.8-2.1l-0.8-1.6l0,0l-0.5-1.2l0,0l1.3-0.5l0.4-2.1l2.7,1l2.3-1.1l1.8-5.9
			l-0.8-1.6l0,0l0,0l0,0l2.2-1l1.7,2.5l1.1,0.1l0,0l1.3,2.8l0,0l-1.7,0.9l-0.1,2.1l-1.9,3l-0.2,3.9l5.9,2.6l1.8,2.2l-1.1,0.7
			l0.7,0.5l-0.8,2.5l-2.3-0.2l1.6,0.1l-0.4-0.8L265.8,296z"/>
		<path id="JP-04" class="st0" d="M351.8,197l-0.4,0.7l0.8,0.7l-1.3,0.8l-1.7,3.6l-0.1,5.6l0,0l-1.4,0.1l0,2.2l-1.7,0.1l0.3,0.6
			l-1.8-0.8l-0.6-2.4l-3.5,0l-1.5-1.8l-1.1,0.6l-1.4-0.7l0,0l-0.1-2l2.7-0.6l1.3-2.6l-0.1-2.2l2.6-4.7l-1.3-4.6l1.1,0l0.9-3.2
			l-1.9-2.9l0,0l2-0.2l2.4-1.7l0,0l1-0.1l3.2,2.2l2.9-0.1l0.1,2.1l1.8,1l1.6-1.8l2.5,1l1.2-5.4l2.6,0.6l0,0l0.9,2.9l-1.6-0.8
			l-0.1,1.7l-1.5,1.4l1,0.7l0,1.2l-0.7-0.6l-1.6,1.1l0,0.7l1.7,0.2l-1.3,1.4l0.6,1.2l1.1,0.2l-0.3,0.9l-0.8-0.5v1.6l-0.9,0l0.5,1.2
			l1.3-0.2l-0.6,0.4l0.3,2.8l-2.1-1.9l0.8-0.7l-0.5-0.6l-1.1,0.4l-0.4-0.8l-2.5,0.4l-1.7,1.9l-0.1-1.4L351.8,197z"/>
		<path id="JP-45" class="st0" d="M163.4,348.6l-1.2,4.8l0.8,1.2l-0.5,3.6l-1.7,2.5l-0.6,3.5l-1.9-0.4l-0.7-1.5l-1.1-0.3l0,0
			l0.7-1.4l-0.2-2.4l-2.1-0.8l-0.5,0.6l-1.3-3.4l-2-0.6l0.1-2.2l-3.7-3.6l0.5-1l0,0l4.4-0.3l1.1-1.3l2,0.2l-1.3-2.3l1.4-1.6
			l-1.8-2.6l0-2.5l1.9-1l3-5.4l1.3-0.2l0,0l0.9,0.6l2-0.7l1.7,1.9l2.8-0.4l1.4-1.5l1.6,0.6l-0.3,1.6l0.6,0l0,0l-3.9,4.6l0.9,1.2
			l-1.6,0.7l0.8,0.9l-0.9,0.4l-1.2,2.8L163.4,348.6z"/>
		<path id="JP-15" class="st0" d="M295.6,226.4l6.7-5.2l3.8-5.6l2.3-5.7l8.1-4.7l1.8-1.9l1.6-3.6l0.1-3.9l1.9-3.8l0,0l3.3,1.3
			l-0.1,2.3l0.8,1.1l3,1.7l-0.8,1.6l-1.4,0.9l-1.6-0.2l-0.5,0.8l0.2,2.9l-1.3,3.7l2.2,2.1l0,0l-3.7,4.3l0.7,3.4l-3,0l-0.7,1.4
			l-3.4,0.3l-0.6,0.9l0.5,1.8l-1.2,2.6l1.7,1.9l-0.3,5.2l0,0l-2.8-2.7l-1,1.7l-1.6,0.3l0.3,1.9l-0.9,0.1l0,1.4l-2.1,0.6l-0.7,1.7
			l-1.8,0l0,0l-0.1-2.8l-2-1.5l-0.5-2.5l-0.8-0.2l-2.6,0.8l-1.9,2.1l-0.3,1.6l-1.4-0.6l-3.2,1.7l-1-0.7l0.2-1.9l-2.9-0.3l0.1,1.3
			l-2.1,2.4l0,0l-1-4.2l-1.5-1.1l0,0l5.4-2l3.6-2.7L295.6,226.4z M300.6,201.6l-0.4,2.3l2.5-0.1l-1.4,3.9l-2.8,2.2l-2.8,0.5l2.7-4.6
			l-1.4-0.3l-1,0.8l0.1-2.8l1.7-2.8l2.2-1.6l0.5-1.5l1.1-0.3L300.6,201.6z"/>
		<path id="JP-20" class="st0" d="M282.9,272.2l0.8-1.2l-0.3-1.3l0.9-0.3l-0.7-1l0.6-1.6l-1.6-0.2l-0.2-3.4l-1.6-2.5l-2.6-1.3
			l1.1-1.9l1.9-0.1l2.3-2.8l0.4-1.6l-1.2-1.6l1.9-4.4l-1.2-1.7l0,0l2.3-3.1l-0.2-1.2l1.2-0.7l0.2-4.2l0,0l2.1-2.4l-0.1-1.3l2.9,0.3
			l-0.2,1.9l1,0.7l3.2-1.7l1.4,0.6l0.3-1.6l1.9-2.1l2.6-0.8l0.8,0.2l0.5,2.5l2,1.5l0.1,2.8l0,0l-3.3,1.2l0,1.1l-1.9,1.3l-0.6,2.7
			l0.1,1.3l1.2,0.7l3.5-0.2l0.2,2.6l-1,0.7l0.6,2.4l-1.1,0.3l1.4,1.5l0,2.1l1.3,0.6l0,0l0.2,2l0,0l-2.1,0.9l-0.5-1.1l-2.5,0.5
			l-0.5-1.2l-1.4-0.6l-1.8,2.7l-0.9-0.5l-1,2l0.9,0.9l-1,1.1l0.7,1.8l0,0l-1.5,2.1l0,4.5l-6.4,3.8l0,0l-2.6-0.4l-2.1,0.8
			L282.9,272.2z"/>
		<path id="JP-29" class="st0" d="M253,285.3l0.8,1.6L253,289l2.1,0.6l1.4,1.7l-0.4,1l-2.2,0.3l-0.5,0.9l1.1,1.9l-0.7,0.4l0.7,1.2
			l-0.7,1.4l0.1,4l-1.6-0.2l-3.1,3.2l0,0l-4.5,0.6l-0.6-0.7l0.7-1.8l-1.8-2.7l1.9-2.7l1.7-0.5l-1.7-3.5l0,0l0.8-1.5l-0.6-3.8
			l1.5-4.1l0,0l0.5,1.2l1.9,0.5l1.5-1.2l1.4,1L253,285.3z"/>
		<path id="JP-42" class="st0" d="M138.9,329.3l1.4,0.2l0.9,1.7l-0.6,2.7l-3.5,1.9l-0.7-2l1.5-1.7l-0.5-1l-1.9,0l-2.6,0.6l-1.1,2.5
			l-3.1,2.1l1.8-3.8l-1.1-2l-0.7,0.3l-0.9-0.9l-1.2-2.6l0.6-2.9l1-0.3l0.4,1.9l1.6,0.3l-0.5,3l1.2,0.8l1-1.1l2.2,0.8l-1.5-1.8l0-2.4
			l-3.8-1.2l-0.3-2l-1.1,1.5l0.2-1.5l-2.4-1.2l0.9-3.9l0.6,0.5l0.9-0.9l0.1,1.1l2.1-0.5l0.2,0.8l0,0l-0.6,1l1.1,2.6l2.4,0.5
			l-0.3,1.8l2.7,2.4l2.8,0.7l0,0l-1.5,1.9l0.9,0.7L138.9,329.3z M120.6,295l0.3-1.1l-0.6,0.7l-1.8-0.4l2-4.1l-0.8-0.9l0.7-1.9
			l1.4-0.1l1.1-1.3l1,0.9l-0.5,2.7l-2.1,2.4l0.9,2.5l-0.9,0.7l0.4,0.5l-1.3,0.5l-0.9,3.5l-1.4,1.1l-0.9-0.4l0.8-5.4l0.4,0.9
			L120.6,295z M110.9,332.4l1,2.3l-2.4-0.1l0,1.7l-0.7-0.8l-2.7-0.1l0.3-0.8l1.2-0.1l-0.3-3l1,0.7l2-1.1L110.9,332.4z M116.1,325.2
			l-0.3,1.5l1.5-0.6l0.3,0.7l-1.7,1.5l-0.7,2.3l-0.5-3l-0.9,0l1.1-0.8l1.3-4.4L116.1,325.2z M124.4,317.5l0.6-0.7l0.3,1.2l-2.1,3.4
			l-1.8,1l-0.3-0.8l0.8,0.4l0.2-2L124.4,317.5z M111.3,330l0.8,0.5l-0.4,1.4l-0.8-0.5L111.3,330z M114.2,329.6l-0.9-0.9l0.7,0.1
			l-0.2-0.9l0.9,0.8l-0.1,1.2L114.2,329.6z M116.9,319.4l-0.2,1.1l-1.1-0.2L116.9,319.4z M112.9,331l-1-1.8l0.8,0.9l0.6-0.7
			L112.9,331z M122.1,317.6l0.6-1.7v2.1L122.1,317.6z M125.4,315.1l-1.6,0.2l1.2-0.9L125.4,315.1z M115.3,322l-0.3-0.7l1,0.1
			L115.3,322z"/>
		<path id="JP-47" class="st0" d="M90.7,474.1l3.3-2.5l-1.7-0.7l-0.3-2.3l2.4,0.4l0.2,1.4l0.9-0.1l3.5-3.6l0.3-1.6l1.2,0.6l0.4,2
			l-1.8,2.6l-1.8,0l0.1,1.4l-1.2,0.7l-1.2-0.4l0.3,0.7l-2,1.8l-2.3,0.1l1.8,3l-1.7-0.8l-1.3,2.8l1.2,0.8l-3.1,2l-0.8-2.7l2.4-2.4
			l-0.8-2.7L90.7,474.1z M125.8,432l-1.1,1.4l-1.6,0.2l0.1,1.9l-1.9,1.3l0.2,1l-1.6-0.9l-0.4-1.4l-2.7-1l1.8-0.5l-0.2-0.6l2.4-1.5
			l3.3-0.7l0.7-1.4l1.6-0.3l0.3,1.4l0.7-1l-0.6-0.9l0.9-0.6l0.5,2.2L125.8,432z M14.3,519.8l-1.2,2.2l-4.3-1.1l0.8-0.9l0.8,0.6
			l0.6-2.5L14.3,519.8z M113.5,443.4l1.3,2.1l-1,2l-1,0.2l-1.1-1.4l0-2.5l0.4-1.3l1.4,0L113.5,443.4z M18.9,517.8l1.1-0.1l2.3-3.2
			l-1.8,3.1l-0.2,2.5l-1.7,0.4l-0.9-0.8l0.6-1l-1.5-0.4l1-1.1L18.9,517.8z M40.2,511.2l0.6,0.1l-0.4-3.5l1.4,2.5l2.3,1.5l-2.9,0.4
			L40.2,511.2z M106.7,454.3l-1.4,0.8l-0.7-1.3l3.7-1.1L106.7,454.3z M118.4,436.7l0.7-0.3l1.7,1.2l-0.1,0.9h-2.5l-0.8-2.5l0.7-0.3
			L118.4,436.7z M70.1,477.1l-1.2-1l1.4-0.4l0.8,0.9l-0.2,1.2L70.1,477.1z M134.4,432l-1.2,1.9l-1.1-0.1l0.1-0.7L134.4,432z
			 M38,509.9l0.5-1l1.1,1.1L38,509.9z M93.4,461.4l1.4-1.1l-2.1,2.3L93.4,461.4z M90.7,468.1l0.2,0.5l-1.6-0.2L90.7,468.1z
			 M93.1,463.3l0.1,1l-0.6-0.6L93.1,463.3z"/>
		<path id="JP-27" class="st0" d="M240.7,290.4l0.3-2.9l0,0l0.5-1.2l-0.8-5l0.9-0.5l-2.4-1l-0.2-1.6l0.7-0.3l0,0l0.2,0.7l2.2,0.6
			l1,1.8l0.8-0.3l-0.1-1.1l0.8,0l2.6,4l-0.3,0.6l0,0l-1.5,4.1l0.6,3.8l-0.8,1.5l0,0l-10.1,2.6l-0.8-1l0,0l2.6-0.9L240.7,290.4z"/>
		<path id="JP-33" class="st0" d="M213.2,289.3l-1.4,1.1l-0.5,1.7l-4.3-0.5l-0.6-0.8l-3.9,1.6l-0.7-0.8l0,0l-1.3-3.4l-0.1-4.4
			l-1.6-2l0.5-2.8l-1-1.2l0,0l0.6-1.1l2.2-0.4l-0.1-1.6l2-0.2l1.7-3.7l3,0.6l1.6,1.6l3.6-2.5l0,1.1l2.4,0.6l0.9,2.7l4.4-1.7l0,0
			l0.1,2.2l-0.9,0.2l-1.8,2.8l-0.3,1.8l0.7,0.9l-0.7,1.3l1.8,2.8l0,0l-1.4,0l-2.1,2.9L213.2,289.3z M218.5,292.2l0.3-0.6l-1.5,1.5
			l0-1.3l-1.9,0l0.4-0.9l3.7-1.4l-0.2,3.1L218.5,292.2z"/>
		<path id="JP-44" class="st0" d="M150.4,323.9l0.8-1.6l-1.2-1.5l0.8-1.3l-0.6-1.1l1.3-2.5l1.6-1.4l3.8-0.1l0.1-2.1l0,0l4.7,0.6
			l1.6-2.3l1.7-0.5l2.9,2.5l0.2,2.9l-0.7,1.4l-1.4-0.4l0.2,1.2l-1.1,0.7l-1.7-0.4l-0.1,0.7l0.4,1.5l1.5,0.5l1.9-0.8l1.3,1l3-0.7
			l-1.9,3.3l1.8-0.2l-0.8,1.3l1,0.3l0.6-0.7l0.6,0.8l0.6-0.8l0.1,0.8l-1.5,0.2l-0.6,1.7l3.7,1.1l-2.1,0.3l0.8,0.8l-0.8,0.8l0.7,0.7
			l-1.4,1l-0.9-0.5l-0.2,1.5l0,0l-0.6,0l0.3-1.6l-1.6-0.6l-1.4,1.5l-2.8,0.4l-1.7-1.9l-2,0.7l-0.9-0.6l0,0l-1.4-1.3l-0.8-3.9l-2.1-3
			l-2.4,0.3l0.7,2l-0.7,1.5L150.4,323.9z"/>
		<path id="JP-41" class="st0" d="M129.9,318.6l0.7,1l0.6-2.5l-1.8-1.3l0.5-0.8l1,0.7l-0.3-2.4l1.7,0.1l0.8,2.2l1.4-0.3l0,0l4.7-0.2
			l3.1,2l2.1-1l0,2.2l-2.9,2.2l-0.8,2.3l0,0l-1.3,0l-1.1-1.1l-2,2.1l1.4,3.5l0,0l-2.8-0.7l-2.7-2.4l0.3-1.8l-2.4-0.5l-1.1-2.6l0.6-1
			l0,0L129.9,318.6z M128.3,309.7l-1.6-1.4l1.2-2.2l1.4,0.5l-0.3,1.6l0.8,0.3L128.3,309.7z M128.5,316.3l0.4-1l0.8,1l-1.2,0.6
			L128.5,316.3z"/>
		<path id="JP-25" class="st0" d="M260.3,273.9l0.8,1.6l-1.8,5.9l-2.3,1.1l-2.7-1l-0.4,2.1l-1.3,0.6l0,0l-1.6-2.3l-1.4-0.1l-0.9-3.8
			l0.6-5.5l-1.6-1.8l0,0l0.9-1.3l1.6,0.1l1-2.8l1.2,0.7l2.1-2.1l1.1,0.3l-0.4-3.2l2.5,0.8l0,0l0.9,1.1l-0.1,1.6l1.6,0.5l0.8,3.4
			l-1.2,3.4L260.3,273.9z"/>
		<path id="JP-32" class="st0" d="M179.3,277.7l2.1-3.1l4.5-2.9l0.5-2.4l-0.9-0.8l6.8-2l-0.1-0.6l1.2,0.1l1.3-1.6l0.9,1.1l3.6-0.2
			l-1.6,0.8l1.6,1.7l0,0l-0.3,4.7l-3.1,1.4l0.9,1.1l-1.1,2.2l0,0l-5.3-0.6L188,280l-2,1.3l1.1,1.5l-3.2,1.2l-1.9-0.5l-2.8,1
			l-1.2-0.6l-2.1,2.5l0.6,0.3l-0.9,2.8l-1.5,1.5l0.5,0.6l0,0l-1.3,1.2l0.3,1.2l-1.1,1.6l-0.7-0.6l-2,0.8l-1-1.6l0.6-1.5l-1.9,0
			l-0.6-1.6l1.1-1.6l-0.8-2.5l0,0l2.7-0.4l5.2-5.7L179.3,277.7z M197.4,250.3l-0.9-0.6l-0.1-1.9l1.9-1.3l2.1,1.8l-0.3,1.5l-1.3,0.2
			l0.4,0.8L197.4,250.3z M151.4,217.1l0.4,1.3l-0.8,0.9l-1.3-0.5l-0.3-1L151.4,217.1z M194.4,251.5l-0.6,2l-1.2-0.8l0.2,1.3l-1-0.6
			l1.3-1.8L194.4,251.5z M195.6,252.8l-1.3,1.3l-0.1-1.6l0.9-0.5L195.6,252.8z M193,254.1l1.2,0.9l-1.2-0.2L193,254.1z"/>
		<path id="JP-11" class="st0" d="M305.8,257.2l-0.2-2l0,0l4.9-3.2l1.5-0.1l1.7-3.7l4.8,0.8l1.8,1.3h3.1l0.8-0.8l0,0l0.8,0.4l0,0
			l0.7,2.8l0.8-0.2l0,0l2.4,5.7l-0.6,1.6l0,0l-2.1-0.5l-2.9,1.2l-1.5,0.1l-0.3-0.9l-2.8,0.8l-1.7-1.6l-5.5-1.5l-1.6,1l0,0l-1.1,0.3
			L305.8,257.2z"/>
		<path id="JP-22" class="st0" d="M313.4,282.1l-2.3,3.1l-0.2,2l-3.2,1.2l-1.7-2l0.8-1.5l-0.4-3.1l0.7-0.6l-0.5-1.5l0.5-1.2l2,0.2
			l0.3-0.7l-1.8-1.6l-2.3-0.5l-2.7,0.8l-0.7,2.7l-3.1,1.7l-0.6,2.3l-2.8,3.8l0.7,1.6l-4.5-1.6l-10.1-0.3l0,0l0.3-3.6l2.8-1.5
			l3.7-6.3l-0.2-1.5l0,0l6.4-3.8l0-4.5l1.5-2.1l0,0l0.9,3.2l-0.3,4.5l2.2,0.4l1.4,3.2l2-0.5l-0.4-2.7l0.4-2.3l1-0.9l2,2.1l4.5-1.1
			l0,0l1.7,0.2l-0.3,4.6l0.8,1.2l1.5,0.2l0,0l-0.8,2l1.5,2.4L313.4,282.1z"/>
		<path id="JP-09" class="st0" d="M336,232.1l0.6,5.3l-1.3,0.9l0.6,3.8l-1.1,3l-4.4,0.8l-1.2,1.8l-1.1-0.3l-0.6,1.7L325,250l0,0
			l-0.8-0.4l0,0l-0.8-1.3l-2.8,0l-2.1-2.3l2.3-5.1l-3-1.4l0.5-3.4l1-1.4l-1-0.4l0.6-1.5l0,0l10.2-5.9l4.8,1.3l1.2,1.9l0.9-0.1
			L336,232.1z"/>
		<path id="JP-13" class="st0" d="M318.9,286.5l-0.8-0.8l0.2-1.9l1.7,1.4l-0.2,1.5L318.9,286.5z M316.8,292.7l-0.3,2.3l-0.5-0.9
			L316.8,292.7z M327.7,263.8l-1-1l-0.5,0.4l-0.3,1.6l1,1.3l-1.8,0.1l0,0l-0.8-1.3l-2.7-1.3l-1.5,0.7l0.8,0.6l-0.5,2l-1.4-1.9
			l-3-0.5l-2.3-1.6l0,0l-2.1-1.2l-1.6-3.2l0,0l1.6-1l5.5,1.5l1.7,1.6l2.8-0.8l0.3,0.9l1.5-0.1l2.9-1.2l2.1,0.5l0,0l1.4,3l0,0l-1,1.3
			L327.7,263.8z M322.3,300.4l-1.5-0.4l-0.2,1.6l1.4-0.2L322.3,300.4z M327.5,325.3l0.3-1.7l-1.9-0.9l0.6,2.1L327.5,325.3z
			 M327.5,325.3l0.3-1.7l-1.9-0.9l0.6,2.1L327.5,325.3z"/>
		<path id="JP-36" class="st0" d="M226.9,307l-6.5,4l-1.8,2.5l0,0l-2.1-0.2l-0.6-3l-2,0l-0.6-3.3l-1.4-0.2l-1,1l-1.4-1.2l-1.8,0.2
			l-1.7-1.1l0,0l0.6-3.1l0,0l3.4-2.2l1.4-0.2l1.3,1l3.4-2.4l4.7,0.4l0.6-1.2l0,0l2.8-0.8l0.8,1.4l-0.6,4.1l0.5,0.5l0.4-0.6l1.4,2
			l-1.5,1.7l2.2,0.2L226.9,307z"/>
		<path id="JP-31" class="st0" d="M199.3,267.8l1.5,0.3l3.7-1.9l3.2,0.8l7.3-0.6l4.8-2.1l0,0l2.8,6.6l0.1,1.6l-2.2,0.9l0,0l-4.4,1.7
			l-0.9-2.7l-2.4-0.6l0-1.1l-3.6,2.5l-1.6-1.6l-3-0.6l-1.7,3.7l-2,0.2l0.1,1.6l-2.2,0.4l-0.6,1.1l0,0l-2.5-0.5l0,0l1.1-2.2l-0.9-1.1
			l3.1-1.4L199.3,267.8z"/>
		<path id="JP-16" class="st0" d="M274.1,235.8l4.2,0.5l1.2-1.1l0.7-2.9l4.1-1.3l0,0l1.5,1.1l1,4.2l0,0l-0.2,4.2l-1.2,0.7l0.2,1.2
			l-2.3,3.1l0,0l-3.6-0.9l-0.3-0.8l-1.4,0.8l-0.2-0.9l-2.8,0.2l-3.7,4.4l-0.4-1.6l-1.5-0.7l-1.6,1.7l0,0l0.5-6.2l-0.6-1.7l1.9-6.8
			l1.4-1.4l2-0.2l0,0l-1.3,2.3L274.1,235.8z"/>
		<path id="JP-30" class="st0" d="M248.6,314.3l-1.2,1.9l0.1-1.1l-5-1l-3.5-3.4l1.2-1.1l-4.1-2.4l-0.7-1.4l-1.9-0.1l0.2-2.3l2.1-1.3
			l-1.9-1l0.9-1.5l1.2-0.3l-2.3-3.2l0.5-0.6l0,0l0.8,1l10.1-2.6l0,0l1.7,3.6l-1.7,0.5l-1.9,2.7l1.8,2.7l-0.7,1.8l0.6,0.7l4.5-0.6
			l0,0l-0.1,1.9l1.7,1.9l1.3,0.3l0,0l-0.5,1.6l-1,0.3l0.4,1.5L248.6,314.3z"/>
		<path id="JP-35" class="st0" d="M163.5,302.3l-0.6-0.4l-1.1,1.2l-0.6-0.9l-2.5,2.5l-2.2-0.8l0.1-0.8l-2.3-1.3l-2.9,3l0.2-3.1
			l-1.1-1.5l1.4-1.9l-1.3-2.4l0.7-1.5l2.6-0.4l-1.5-0.9l0.3-0.8l2.5,0.5l1.1,1.1l4.6-1.1l4.1-5.7l1.7-0.4l0,0l0.8,2.5l-1.1,1.6
			l0.6,1.6l1.9,0l-0.6,1.5l1,1.6l2-0.8l0.7,0.6l1.1-1.6l-0.3-1.2l1.3-1.2l0,0l1.7,5.7l1.6,0.1l0,0l-0.4,5.3l-1.7,1.1l0.3,2.9
			l-0.5-1.1l-5.4-3.3l-0.5,1.1l-0.9-0.2l1.1-1.2l-1.2-0.7l-4.4,1.4L163.5,302.3z M178.7,305.9l-1.4,0.3l-0.6-1.7l1.2-1l1.4,1.1
			l3.3-0.7l-2,1l0,1.1l-1.4-0.8L178.7,305.9z"/>
		<path id="JP-19" class="st0" d="M313.8,262.9l-0.4,3.3l-3.5,2.1l-0.4,1.1l0,0l-4.5,1.1l-2-2.1l-1,0.9l-0.4,2.3l0.4,2.7l-2,0.5
			l-1.4-3.2l-2.2-0.4l0.3-4.5l-0.9-3.2l0,0l-0.7-1.8l1-1.1l-0.9-0.9l1-2l0.9,0.5l1.8-2.7l1.4,0.6l0.5,1.2l2.5-0.5l0.5,1.1l2.1-0.9
			l0,0l3.2,1.6l1.1-0.3l0,0l1.6,3.2L313.8,262.9z"/>
		<path id="JP-06" class="st0" d="M336.4,206.4l0.3,4.1l-1.3,1.6l-2,0.3l-1.5-1.1l-1.2,0.5l-1-1.7l-2.5,0.6l-1.4-0.5l0,0l-2.2-2.1
			l1.3-3.7l-0.2-2.9l0.5-0.8l1.6,0.2l1.4-0.9l0.8-1.6l-3-1.7l-0.8-1.1l0.1-2.3l-3.3-1.3l0,0l1.2-3.1l2.9-3l2.3-8.3l0,0l2.5,0.4
			l1.4-0.7l0.2,1.2l1.5,0.9l5.6,1.5l0.6,1.8l1.8,1l0,0l1.9,2.9l-0.9,3.2l-1.1,0l1.3,4.6l-2.6,4.7l0.1,2.2l-1.3,2.6l-2.7,0.6
			L336.4,206.4z"/>
	</g>
</g>
<g id="Layer_1" xmlns:amcharts="http://amcharts.com/ammap">
	<defs>
		
		
			<amcharts:ammap  bottomLatitude="24.252483" leftLongitude="123.657849" projection="mercator" rightLongitude="145.821536" topLatitude="45.523885">
			</amcharts:ammap>
	</defs>
	
		<image style="overflow:visible;enable-background:new    ;" width="2000" height="2000" xlink:href="C90219CAF2FD67F0.png"  transform="matrix(1.417323e-02 0 0 1.417323e-02 404.5968 57.95)">
	</image>
	
		<image style="overflow:visible;enable-background:new    ;" width="2000" height="2000" xlink:href="C90219CAF2FD67E7.png"  transform="matrix(1.417323e-02 0 0 1.417323e-02 347.2742 58.3744)">
	</image>
	
		<image style="overflow:visible;enable-background:new    ;" width="2000" height="2000" xlink:href="C90219CAF2FD67E8.png"  transform="matrix(1.417323e-02 0 0 1.417323e-02 331.2249 120.7122)">
	</image>
	
		<image style="overflow:visible;enable-background:new    ;" width="2000" height="2000" xlink:href="C90219CAF2FD67E9.png"  transform="matrix(1.417323e-02 0 0 1.417323e-02 309.2235 247.3368)">
	</image>
	
		<image style="overflow:visible;enable-background:new    ;" width="2000" height="2000" xlink:href="C90219CAF2FD67EA.png"  transform="matrix(1.417323e-02 0 0 1.417323e-02 229.7732 262.4565)">
	</image>
	
		<image style="overflow:visible;enable-background:new    ;" width="2000" height="2000" xlink:href="C90219CAF2FD67EB.png"  transform="matrix(1.417323e-02 0 0 1.417323e-02 188.7468 296.1966)">
	</image>
	
		<image style="overflow:visible;enable-background:new    ;" width="2000" height="2000" xlink:href="C90219CAF2FD67EC.png"  transform="matrix(1.417323e-02 0 0 1.417323e-02 321.5968 200.95)">
	</image>
	
		<image style="overflow:visible;enable-background:new    ;" width="2000" height="2000" xlink:href="C90219CAF2FD67ED.png"  transform="matrix(1.417323e-02 0 0 1.417323e-02 75.1432 461.718)">
	</image>
	<text transform="matrix(1 0 0 1 116.2674 482.369)" class="st1 st2 st3">NAHA, Okinawa</text>
	<rect x="184.8" y="499.5" class="st4" width="40" height="16.2"/>
</g>
</svg>
